<?xml version="1.0" encoding="UTF-8"?>
<!DOCTYPE svg PUBLIC "-//W3C//DTD SVG 1.1//EN" "http://www.w3.org/Graphics/SVG/1.1/DTD/svg11.dtd">
<svg xmlns="http://www.w3.org/2000/svg" version="1.1" width="447px" height="121px" style="shape-rendering:geometricPrecision; text-rendering:geometricPrecision; image-rendering:optimizeQuality; fill-rule:evenodd; clip-rule:evenodd" xmlns:xlink="http://www.w3.org/1999/xlink">
<g><path style="opacity:0.961" fill="#b2e088" d="M 70.5,1.5 C 83.8473,0.645435 87.8473,6.14543 82.5,18C 77.9534,19.5452 73.2867,19.8785 68.5,19C 64.6719,15.7355 63.5053,11.5689 65,6.5C 66.3516,4.25103 68.1849,2.58437 70.5,1.5 Z"/></g>
<g><path style="opacity:0.976" fill="#b2e088" d="M 284.5,1.5 C 291.167,1.5 297.833,1.5 304.5,1.5C 304.5,31.5 304.5,61.5 304.5,91.5C 299.125,91.8282 293.792,91.4948 288.5,90.5C 287.764,88.4595 286.931,86.4595 286,84.5C 274.021,96.1027 261.688,96.4361 249,85.5C 239.967,69.5471 239.3,53.2137 247,36.5C 258.498,23.6931 271.164,22.3598 285,32.5C 284.63,22.2033 284.464,11.8699 284.5,1.5 Z M 269.5,41.5 C 274.765,40.5706 279.265,41.9039 283,45.5C 286.98,54.3726 287.313,63.3726 284,72.5C 278.453,79.2657 272.286,79.9323 265.5,74.5C 261.236,66.5933 260.403,58.2599 263,49.5C 264.305,46.0386 266.471,43.372 269.5,41.5 Z"/></g>
<g><path style="opacity:0.972" fill="#b2e189" d="M 1.5,6.5 C 18.1667,6.5 34.8333,6.5 51.5,6.5C 51.5,11.5 51.5,16.5 51.5,21.5C 41.1667,21.5 30.8333,21.5 20.5,21.5C 20.5,28.5 20.5,35.5 20.5,42.5C 30.1667,42.5 39.8333,42.5 49.5,42.5C 49.5,47.5 49.5,52.5 49.5,57.5C 39.8333,57.5 30.1667,57.5 20.5,57.5C 20.5,68.8333 20.5,80.1667 20.5,91.5C 14.1667,91.5 7.83333,91.5 1.5,91.5C 1.5,63.1667 1.5,34.8333 1.5,6.5 Z"/></g>
<g><path style="opacity:0.963" fill="#b2e088" d="M 180.5,6.5 C 197.5,6.5 214.5,6.5 231.5,6.5C 231.5,11.5 231.5,16.5 231.5,21.5C 221.167,21.5 210.833,21.5 200.5,21.5C 200.5,27.5 200.5,33.5 200.5,39.5C 210.167,39.5 219.833,39.5 229.5,39.5C 229.5,44.5 229.5,49.5 229.5,54.5C 219.833,54.5 210.167,54.5 200.5,54.5C 200.5,61.8333 200.5,69.1667 200.5,76.5C 210.833,76.5 221.167,76.5 231.5,76.5C 231.5,81.5 231.5,86.5 231.5,91.5C 214.5,91.5 197.5,91.5 180.5,91.5C 180.5,63.1667 180.5,34.8333 180.5,6.5 Z"/></g>
<g><path style="opacity:0.966" fill="#b3e188" d="M 135.5,25.5 C 145.616,24.4734 153.783,27.8067 160,35.5C 160.667,37.5 161.333,39.5 162,41.5C 162.5,58.1633 162.667,74.83 162.5,91.5C 156.167,91.5 149.833,91.5 143.5,91.5C 143.667,77.1628 143.5,62.8295 143,48.5C 139.567,40.6888 134.067,38.8555 126.5,43C 124.106,44.9522 122.606,47.4522 122,50.5C 120.594,64.1154 120.094,77.7821 120.5,91.5C 114.167,91.5 107.833,91.5 101.5,91.5C 101.5,70.1667 101.5,48.8333 101.5,27.5C 106.544,27.1725 111.544,27.5059 116.5,28.5C 117.236,30.5405 118.069,32.5405 119,34.5C 123.534,29.487 129.034,26.487 135.5,25.5 Z"/></g>
<g><path style="opacity:0.969" fill="#b2e088" d="M 340.5,25.5 C 353.445,27.0811 366.445,27.7478 379.5,27.5C 379.665,30.5184 379.498,33.5184 379,36.5C 375.784,37.4616 372.618,38.6283 369.5,40C 374.67,53.494 370.67,63.1606 357.5,69C 350.897,70.1632 344.23,70.8299 337.5,71C 335.078,73.112 335.078,75.112 337.5,77C 346.45,78.1799 355.45,78.8465 364.5,79C 373.87,80.7184 378.537,86.3851 378.5,96C 378.007,106.641 372.673,113.641 362.5,117C 351.624,119.412 340.624,120.078 329.5,119C 313.565,116.175 308.731,107.342 315,92.5C 317.875,89.537 321.375,87.7037 325.5,87C 317.382,79.8417 317.715,73.0083 326.5,66.5C 319.906,62.1476 316.572,55.9809 316.5,48C 318.222,33.7777 326.222,26.2777 340.5,25.5 Z M 341.5,37.5 C 349.277,36.9409 353.277,40.6075 353.5,48.5C 352.936,57.9132 348.27,61.0798 339.5,58C 335.809,53.8645 334.642,49.0312 336,43.5C 337.36,40.9774 339.193,38.9774 341.5,37.5 Z M 334.5,93.5 C 342.917,93.0943 351.251,93.5943 359.5,95C 361.962,98.4847 361.296,101.485 357.5,104C 348.958,108.102 340.291,108.435 331.5,105C 328.583,102.831 328.083,100.331 330,97.5C 331.397,95.9297 332.897,94.5964 334.5,93.5 Z"/></g>
<g><path style="opacity:0.972" fill="#b2e088" d="M 411.5,25.5 C 437.057,25.2226 448.391,37.8893 445.5,63.5C 431.5,63.5 417.5,63.5 403.5,63.5C 404.488,73.1549 409.822,78.4883 419.5,79.5C 426.993,78.4596 434.327,76.793 441.5,74.5C 441.803,79.43 441.469,84.2633 440.5,89C 425.16,95.4795 410.16,94.8128 395.5,87C 387.047,79.8167 383.38,70.6501 384.5,59.5C 384.004,40.3539 393.004,29.0205 411.5,25.5 Z M 411.5,39.5 C 420.963,38.2135 426.296,42.2135 427.5,51.5C 419.833,51.5 412.167,51.5 404.5,51.5C 404.34,46.004 406.673,42.004 411.5,39.5 Z"/></g>
<g><path style="opacity:0.955" fill="#b3e188" d="M 65.5,27.5 C 71.8333,27.5 78.1667,27.5 84.5,27.5C 84.5,48.8333 84.5,70.1667 84.5,91.5C 78.1667,91.5 71.8333,91.5 65.5,91.5C 65.5,70.1667 65.5,48.8333 65.5,27.5 Z"/></g>
</svg>
